<?xml version="1.0" standalone="no"?>
<!DOCTYPE svg PUBLIC "-//W3C//DTD SVG 20010904//EN"
 "http://www.w3.org/TR/2001/REC-SVG-20010904/DTD/svg10.dtd">
<svg version="1.0" xmlns="http://www.w3.org/2000/svg"
 width="72.000000pt" height="72.000000pt" viewBox="0 0 72.000000 72.000000"
 preserveAspectRatio="xMidYMid meet">
<metadata>
Created by potrace 1.14, written by Peter Selinger 2001-2017
</metadata>
<g transform="translate(0.000000,72.000000) scale(0.100000,-0.100000)"
fill="#000000" stroke="none">
<path d="M218 497 c-138 -62 -129 -247 15 -298 30 -10 46 -11 82 -1 35 9 55 9
89 0 58 -15 125 9 164 60 39 51 39 133 0 184 -40 52 -105 75 -167 59 -34 -8
-55 -9 -75 -1 -35 13 -74 12 -108 -3z m115 -13 c3 -4 -6 -22 -21 -42 -22 -29
-27 -46 -27 -92 0 -47 5 -63 28 -93 34 -44 24 -52 -54 -45 -114 11 -166 140
-92 229 15 17 36 35 47 39 25 10 110 13 119 4z m177 -9 c98 -51 98 -199 0
-250 -29 -15 -111 -21 -123 -9 -3 3 6 24 21 47 20 29 27 53 27 87 0 34 -7 58
-27 87 -15 23 -24 44 -21 47 12 12 94 6 123 -9z m-110 -48 c0 -6 -9 -2 -20 8
-11 10 -20 23 -20 28 0 6 9 2 20 -8 11 -10 20 -23 20 -28z m-18 -14 c21 -20
38 -44 38 -52 0 -9 -18 2 -45 29 -42 42 -54 60 -38 60 4 0 24 -17 45 -37z m38
-96 c0 -5 -25 13 -55 38 -30 26 -55 55 -55 63 0 10 21 -4 55 -38 30 -30 55
-58 55 -63z m-12 -29 c8 -17 -12 -6 -59 34 -27 22 -49 48 -49 56 0 13 99 -70
108 -90z m-20 -30 c2 -4 0 -8 -4 -8 -11 0 -94 82 -94 93 0 10 92 -70 98 -85z
m-28 -21 c0 -6 -11 0 -25 13 -14 13 -25 28 -25 33 0 6 11 0 25 -13 14 -13 25
-28 25 -33z"/>
</g>
</svg>
