<svg width="320" height="66.37459665265108" viewBox="0 0 320 66.37459665265108" class="css-1j8o68f"><defs id="SvgjsDefs2143"></defs><g id="SvgjsG2144" featurekey="odWo6G-0" transform="matrix(0.11379152758736125,0,0,0.11379152758736125,0,-5.211651876685099)" fill="#000000"><g xmlns="http://www.w3.org/2000/svg">    <path d="M587.1,45.8c-52.2,0-103.5,13.8-148.2,40.5c-43.8-25.9-95.1-40.5-147.2-40.5C130.8,45.8,0,176.5,0,337.4         c0,160.9,130.8,291.7,291.7,291.7c52,0,103.1-13.7,147.7-40.2c44.6,26.5,95.7,40.2,147.7,40.2c160.9,0,291.7-130.8,291.7-291.7         C878.8,176.5,748,45.8,587.1,45.8z M439.4,559.9c-46.1-30.9-80.6-74-100.4-123.3l113.7,113.7C448.4,553.6,443.9,556.8,439.4,559.9z          M473.4,532.7L323.8,383.2c-2.6-15-3.9-30.3-3.9-45.8c0-3.6,0.1-7.2,0.2-10.8l178.4,179.1C490.8,515.3,482.4,524.3,473.4,532.7z          M514.7,483.7L323.8,292.1c2.5-14.5,6.1-28.6,10.9-42.3l199.2,199.2C528.3,461,521.9,472.6,514.7,483.7z M544.6,421.5L345.8,222.6         c5.5-11.5,11.8-22.6,18.9-33.3l190.1,190.1C552.5,393.8,549.1,407.9,544.6,421.5z M380.9,167.4c7.9-9.6,16.5-18.7,25.8-27.3         l146.6,146.6c3.1,16.5,4.7,33.4,4.7,50.7c0,2.3,0,4.6-0.1,7L380.9,167.4z M427.6,122.8c3.7-2.8,7.6-5.5,11.5-8.2         c44.6,29.3,78.1,70.3,98,117.6L427.6,122.8z M24.5,337.4C24.5,189.7,144,70.2,291.7,70.2c44.2,0,86.6,10.3,125.1,31         c-76.2,54.6-120.4,142.1-120.4,236.2S341.6,519,416.8,573.6c-38.6,20.7-81.9,31-125.1,31C144,604.7,24.5,485.2,24.5,337.4z          M587.1,604.7c-44.2,0-86.6-10.3-125.1-31c76.2-54.6,120.4-142.1,120.4-236.2S538.2,155.8,462,101.3c38.6-20.7,80.9-31,125.1-31         c147.7,0,267.2,119.5,267.2,267.2C854.4,485.2,734.9,604.7,587.1,604.7z"></path></g></g><g id="SvgjsG2145" featurekey="VGK2BT-0" transform="matrix(4.77957217155073,0,0,4.77957217155073,116.27832580098183,-29.86743061348211)" fill="#000000"><path d="M0.81339 18.7798 l0.5761 -0.91508 c0.11864 -0.18661 0.22034 -0.23746 0.38983 -0.15271 c0.016949 0.033898 1.0508 0.64407 2.1864 0.64407 c0.98305 0 1.322 -0.38983 1.322 -0.77966 c0 -0.57627 -0.62712 -0.77949 -1.7627 -1.0676 c-1.6102 -0.42373 -2.678 -1.2542 -2.678 -2.5424 c0 -1.2712 1.0847 -2.4576 3.1186 -2.4576 c1.2373 0 2.0847 0.42373 2.7627 0.81356 c0.16949 0.10169 0.25424 0.25424 0.15254 0.38983 l-0.62712 0.9661 c-0.084746 0.13559 -0.22034 0.18644 -0.37288 0.13559 c-0.44068 -0.22017 -1.1525 -0.54237 -1.9153 -0.54237 c-0.94915 0 -1.2034 0.47458 -1.2034 0.76271 c0 0.49153 0.71186 0.72881 1.5763 0.96593 c1.5086 0.40678 3.0171 1.1356 3.0171 2.6102 c0 1.4237 -1.3558 2.5083 -3.3898 2.5083 c-1.3898 0 -2.6441 -0.6778 -3.0678 -1.0168 c-0.11864 -0.067797 -0.15254 -0.23729 -0.084746 -0.32203 z M13.96590847457627 19.4578 c0.050847 0.13559 -0.050681 0.22 -0.16933 0.30475 c-0.28814 0.18644 -0.91525 0.32203 -1.5424 0.32203 c-1.8136 0 -2.4746 -0.9322 -2.4746 -3.1186 l0 -3.5763 l-1 0 c-0.15254 0 -0.27119 -0.10169 -0.27119 -0.27119 l0 -0.28814 c0 -0.13559 0.033898 -0.23712 0.13559 -0.33898 c0.98305 -0.79661 1.7627 -1.6269 2.4407 -3.339 c0.050847 -0.11864 0.10169 -0.18644 0.18644 -0.18644 l0.18644 0 c0.13559 0 0.18644 0.067797 0.18644 0.22034 l0 2.4237 l1.7797 0 c0.15254 0 0.28814 0.11881 0.28814 0.28831 l0 1.2203 c0 0.15254 -0.13559 0.27119 -0.28814 0.27119 l-1.4746 0 c-0.13559 0 -0.25424 -0.016949 -0.32203 -0.050847 l0 3.4576 c0 0.98305 0.11864 1.5424 0.94915 1.5424 c0.35593 0 0.59322 -0.050847 0.79661 -0.10169 s0.33898 0.033898 0.37288 0.22051 z M23.389816949152543 11.6102 c0.15254 0 0.25424 0.11881 0.25424 0.28831 l0 7.8305 c0 0.15238 -0.10169 0.27102 -0.23729 0.27102 l-1.0508 0 c-0.28814 0 -0.52542 -0.42356 -0.54237 -0.71169 l0 -0.18644 c-0.66102 0.50847 -1.5593 0.99983 -2.7119 0.99983 c-1.7458 0 -3.4915 -1.1015 -3.4915 -3.2202 l0 -3.7458 c0 -0.45763 -0.033898 -0.81356 -0.084746 -1.1695 c-0.033898 -0.18644 0.016949 -0.35593 0.16949 -0.35593 l1.1017 0 c0.42373 0 0.66102 0.28814 0.66102 0.67797 l0 4.4237 c0 1.1186 0.76271 1.7458 1.8983 1.7458 c0.9661 0 1.7627 -0.54237 2.4576 -1.2373 l0 -5.322 c0 -0.16949 0.10169 -0.28831 0.25407 -0.28831 l1.3222 0 z M31.525271186440676 12.034099999999999 c0.18644 0.11864 0.23729 0.22017 0.11848 0.40661 l-0.69475 1.0169 c-0.084746 0.11864 -0.20339 0.15254 -0.35593 0.11864 c-0.35593 -0.16949 -0.66102 -0.32203 -1.2203 -0.32203 s-1.4407 0.23729 -1.9153 1.2881 l0 5.1866 c0 0.15238 -0.10169 0.27102 -0.25424 0.27102 l-1.339 0 c-0.15254 0 -0.25424 -0.11864 -0.25424 -0.27102 l0 -7.8476 c0 -0.15238 0.11864 -0.27119 0.25424 -0.27119 l0.9322 0 c0.40678 0 0.66102 0.42373 0.66102 0.72881 l0 0.11881 c0.59322 -0.54237 1.3051 -0.91525 2.2373 -0.91525 c0.86441 0 1.5085 0.27119 1.8305 0.49153 z M34.2709966101695 8.492 c-0.55915 0 -1.0168 -0.44068 -1.0168 -1.0169 c0 -0.55932 0.45763 -1.0169 1.0168 -1.0169 c0.55932 0 1.0169 0.45763 1.0169 1.0169 c0 0.57627 -0.45763 1.0169 -1.0169 1.0169 z M34.93199661016949 11.6102 l-1.3051 0 c-0.16949 0 -0.27119 0.11881 -0.27119 0.27119 l0 7.4407 c0 0.38983 0.23729 0.6778 0.64407 0.6778 l0.94915 0 c0.15254 0 0.25424 -0.10153 0.25424 -0.28797 l0 -7.8305 c0 -0.15238 -0.11864 -0.27119 -0.27119 -0.27119 z M42.60997627118644 19.4578 c0.050847 0.13559 -0.050681 0.22 -0.16933 0.30475 c-0.28814 0.18644 -0.91525 0.32203 -1.5424 0.32203 c-1.8136 0 -2.4746 -0.9322 -2.4746 -3.1186 l0 -3.5763 l-1 0 c-0.15254 0 -0.27119 -0.10169 -0.27119 -0.27119 l0 -0.28814 c0 -0.13559 0.033898 -0.23712 0.13559 -0.33898 c0.98305 -0.79661 1.7627 -1.6269 2.4407 -3.339 c0.050847 -0.11864 0.10169 -0.18644 0.18644 -0.18644 l0.18644 0 c0.13559 0 0.18644 0.067797 0.18644 0.22034 l0 2.4237 l1.7797 0 c0.15254 0 0.28814 0.11881 0.28814 0.28831 l0 1.2203 c0 0.15254 -0.13559 0.27119 -0.28814 0.27119 l-1.4746 0 c-0.13559 0 -0.25424 -0.016949 -0.32203 -0.050847 l0 3.4576 c0 0.98305 0.11864 1.5424 0.94915 1.5424 c0.35593 0 0.59322 -0.050847 0.79661 -0.10169 s0.33898 0.033898 0.37288 0.22051 z"></path></g></svg>