<?xml version="1.0" standalone="no"?>
<svg viewBox="0 0 200 200" xmlns="http://www.w3.org/2000/svg">
  <path fill="#F7F9FB" d="M48.9,-77.1C62.7,-67.3,72.6,-52.5,77.3,-36.9C81.9,-21.3,81.3,-4.8,77.1,9.7C72.8,24.2,64.9,36.8,56.1,50.8C47.4,64.8,37.7,80.3,24.5,84.9C11.2,89.5,-5.7,83.2,-21.9,77.2C-38,71.2,-53.5,65.5,-63.9,54.7C-74.4,43.9,-79.8,28.1,-79.7,12.9C-79.6,-2.2,-74,-16.7,-67.5,-30.8C-61.1,-45,-53.8,-58.7,-42.4,-69.6C-31,-80.5,-15.5,-88.6,1,-90.2C17.6,-91.8,35.2,-87,48.9,-77.1Z" transform="translate(100 100)" />
</svg>
